<?xml version="1.0" encoding="UTF-8" standalone="no"?>
<!-- Created with Inkscape (http://www.inkscape.org/) -->

<svg
   width="69.739769mm"
   height="62.441196mm"
   viewBox="0 0 69.739769 62.441196"
   version="1.1"
   id="svg1"
   xml:space="preserve"
   xmlns:inkscape="http://www.inkscape.org/namespaces/inkscape"
   xmlns:sodipodi="http://sodipodi.sourceforge.net/DTD/sodipodi-0.dtd"
   xmlns="http://www.w3.org/2000/svg"
   xmlns:svg="http://www.w3.org/2000/svg"><sodipodi:namedview
     id="namedview1"
     pagecolor="#ffffff"
     bordercolor="#666666"
     borderopacity="1.0"
     inkscape:showpageshadow="2"
     inkscape:pageopacity="0.0"
     inkscape:pagecheckerboard="0"
     inkscape:deskcolor="#d1d1d1"
     inkscape:document-units="mm"><inkscape:page
       x="0"
       y="-3.7581142e-22"
       width="69.739769"
       height="62.441196"
       id="page2"
       margin="0"
       bleed="0" /></sodipodi:namedview><defs
     id="defs1" /><g
     inkscape:label="Layer 1"
     inkscape:groupmode="layer"
     id="layer1"
     transform="translate(-2.4479245,-2.319064)"><path
       style="fill:#000000"
       d="m 50.135619,63.11065 -1.200677,-1.65008 -0.760123,0.0797 -0.760124,0.0797 -0.695441,-0.74476 c -0.382492,-0.40961 -0.960014,-1.13089 -1.28338,-1.60284 -0.323367,-0.47195 -0.667903,-0.8589 -0.765636,-0.85989 -0.09773,-0.001 -1.201975,0.53397 -2.45387,1.18881 l -2.276173,1.19063 -2.044047,-0.006 -2.044047,-0.006 -1.123542,-0.51 c -0.617948,-0.2805 -1.629979,-0.85156 -2.248958,-1.26901 -0.618979,-0.41745 -1.545976,-1.01246 -2.059993,-1.32224 l -0.934577,-0.56325 -1.273677,1.57348 -1.273678,1.57347 H 26.049583 25.16149 l -1.136986,1.44901 -1.136987,1.44901 -0.926041,-0.0599 -0.926042,-0.0599 -0.08733,-0.61658 -0.08733,-0.61657 1.347089,-1.54878 1.347089,-1.54878 -0.267568,-0.16537 c -0.147162,-0.0909 -0.267567,-0.38674 -0.267567,-0.65731 v -0.49195 l 1.190625,-1.39485 c 0.654844,-0.76717 1.190625,-1.48156 1.190625,-1.58753 0,-0.10597 -0.42623,-0.45609 -0.947178,-0.77806 l -0.947177,-0.58538 -0.837424,1.02683 c -0.460582,0.56475 -1.113807,1.30802 -1.451611,1.6517 l -0.614187,0.62488 -0.710066,-0.12543 -0.710066,-0.12544 -1.338722,1.61723 -1.338723,1.61722 -0.615731,0.0893 -0.61573,0.0893 -0.224308,-0.35388 C 14.926775,58.96651 14.824013,58.5853 14.821785,58.31402 l -0.0041,-0.49324 1.304326,-1.5056 1.304325,-1.5056 -0.241941,-0.38241 C 16.817904,53.8479 16.838075,53.8029 18.256424,52.0356 l 1.322072,-1.64733 -0.91116,-0.61915 c -0.932218,-0.63346 -1.468401,-0.78275 -1.468401,-0.40884 0,0.11566 -0.583815,0.84202 -1.297368,1.61413 l -1.297369,1.40383 -0.753152,-0.16152 -0.753152,-0.16153 -1.316548,1.60241 -1.316548,1.6024 -0.8001194,-0.0785 -0.800119,-0.0785 -0.07741,-0.66216 -0.0774,-0.66216 1.3479324,-1.51234 1.347932,-1.51235 -0.26295,-0.49133 -0.26295,-0.49132 0.447631,-0.6882 c 0.246197,-0.3785 0.832926,-1.15845 1.303843,-1.73322 l 0.856213,-1.04502 -1.025683,-0.67877 -1.025683,-0.67876 -1.260924,1.57208 -1.2609244,1.57209 h -0.878097 -0.878097 l -1.511475,1.5875 -1.511476,1.5875 h -0.713251 -0.713252 l -0.130307,-0.68166 -0.130307,-0.68166 1.398562,-1.6292 1.398562,-1.62919 -0.240766,-0.44988 c -0.339822,-0.63496 -0.374014,-0.56166 1.073087,-2.30053 l 1.313853,-1.57875 -0.379413,-0.76056 -0.379414,-0.76055 -0.03828,-2.39849 -0.03828,-2.39848 0.269958,-0.50443 c 0.487583,-0.91105 1.347827,-1.49784 5.4220854,-3.698496 l 4.025013,-2.17407 0.138591,4.009946 0.138592,4.00996 0.478248,0.88838 c 0.263037,0.48861 1.008867,1.41901 1.6574,2.06754 l 1.179152,1.17915 2.172759,1.04107 2.172758,1.04107 2.62504,0.6646 2.62504,0.66461 2.997356,0.26276 2.997356,0.26276 3.005251,-0.26345 3.005251,-0.26346 2.617145,-0.67861 2.617145,-0.67861 1.880476,-0.90288 1.880476,-0.90288 1.373844,-1.2352 1.373843,-1.23521 0.571849,-1.08811 0.571848,-1.08812 0.104159,-4.167186 c 0.05729,-2.29195 0.157128,-4.16718 0.221867,-4.16718 0.241302,0 1.959152,0.93447 7.417113,4.03473 l 5.60588,3.184296 0.32346,0.78088 0.32345,0.78089 -0.2471,0.70283 -0.24709,0.70283 -1.84579,1.09204 c -1.95523,1.15679 -24.032128,13.51575 -26.05516,14.58604 l -1.190625,0.62991 -2.320322,-0.0842 -2.320322,-0.0842 0.468239,0.35897 c 0.257531,0.19743 0.851367,0.52485 1.319636,0.7276 l 0.851398,0.36864 h 1.55196 1.551961 l 13.48202,-7.49799 c 7.415115,-4.12389 13.792885,-7.70167 14.172825,-7.95062 l 0.69081,-0.45263 0.10919,0.32759 c 0.12242,0.36725 -0.15601,2.25798 -0.42477,2.88444 l -0.17489,0.40768 1.20863,1.55647 1.20863,1.55648 -0.15416,0.70191 -0.15417,0.70191 1.20157,1.54738 c 1.30706,1.68323 1.37846,1.90557 0.84585,2.63395 l -0.35571,0.48646 -0.63648,-0.17096 -0.63648,-0.17096 -1.15524,-1.59927 -1.15524,-1.59927 -0.43226,0.0419 c -0.23774,0.023 -0.62975,0.0282 -0.87113,0.0114 l -0.43887,-0.0305 -1.34532,-1.71189 -1.34533,-1.7119 -0.92778,0.54741 c -0.51028,0.30107 -0.92779,0.65981 -0.92779,0.7972 0,0.13739 0.49102,0.90015 1.09114,1.69501 l 1.09114,1.4452 -0.16304,0.81518 -0.16303,0.81517 1.19617,1.55452 1.19617,1.55451 -0.16858,0.67167 -0.16858,0.67167 h -0.63278 -0.63277 l -0.48843,-0.48842 c -0.26863,-0.26863 -0.87015,-1.04325 -1.33671,-1.72137 l -0.84829,-1.23295 -0.641,0.16089 -0.641,0.16088 -0.73654,-0.75462 c -0.4051,-0.41504 -1.10466,-1.22182 -1.55458,-1.79284 l -0.81804,-1.03823 -0.965624,0.59679 c -0.531092,0.32823 -0.965622,0.65575 -0.965622,0.72783 0,0.0721 0.484571,0.80651 1.076824,1.63207 l 1.076822,1.50102 -0.14872,0.75037 -0.14872,0.75038 1.22099,1.58677 1.22099,1.58677 -0.29134,0.63942 -0.29133,0.63941 h -0.66858 -0.66857 l -1.232919,-1.71385 -1.232918,-1.71386 -0.619677,0.15553 -0.619677,0.15553 -1.001402,-1.02136 c -0.550771,-0.56175 -1.247611,-1.36879 -1.548533,-1.79342 l -0.547131,-0.77206 -0.963055,0.5952 c -0.52968,0.32736 -0.963054,0.65216 -0.963054,0.72178 0,0.0696 0.419741,0.67631 0.932757,1.34819 1.008388,1.32064 1.336554,2.20057 1.074946,2.88231 l -0.166033,0.43268 1.014126,1.35385 c 0.557769,0.74462 1.103578,1.50375 1.212909,1.68695 l 0.198784,0.3331 -0.167199,0.5268 -0.1672,0.5268 H 52.10914 51.336254 Z M 31.089605,43.43217 C 26.871398,42.8124 23.761743,41.82492 21.339501,40.33601 l -1.283437,-0.7889 -0.767084,-1.05893 -0.767084,-1.05893 v -6.437976 -6.43797 l 7.807606,3.88853 7.807606,3.88854 h 1.491243 1.491242 l 7.634486,-3.89681 7.634485,-3.8968 v 6.2345 6.234496 l -0.379746,0.73434 c -0.208861,0.4039 -0.881958,1.18807 -1.495771,1.74261 l -1.116024,1.00826 -1.925851,0.8898 c -1.059218,0.48939 -2.9162,1.13755 -4.126626,1.44036 l -2.200774,0.55056 -4.630209,0.0886 c -2.546614,0.0487 -4.987396,0.0361 -5.423958,-0.0281 z M 24.475021,25.809824 c -5.384271,-2.67356 -11.277865,-5.62967 -13.096875,-6.56912 l -3.3072924,-1.7081 -0.08958,-0.48395 c -0.04927,-0.26617 -0.01856,-0.76688 0.06823,-1.11269 l 0.157805,-0.62875 1.651563,-0.91058 c 0.9083594,-0.50082 6.6449574,-3.42315 12.7479954,-6.4940702 l 11.096433,-5.5835 h 1.421057 1.421058 l 12.037308,6.01927 c 6.620519,3.3106002 12.406921,6.3246902 12.858671,6.6979702 l 0.82136,0.67871 -0.0586,3.33818 -0.0586,3.33818 0.54543,0.2919 0.545427,0.29191 v 0.73152 c 0,0.40234 -0.14166,0.87319 -0.31481,1.04634 l -0.314807,0.31482 0.617577,1.12716 c 0.33967,0.61994 0.90009,1.50884 1.24537,1.97533 l 0.6278,0.84817 -0.55894,0.29914 -0.55894,0.29913 -0.38662,-0.55199 c -0.21265,-0.30359 -0.496,-0.55199 -0.62966,-0.55199 h -0.243037 l 0.242927,0.63895 0.24293,0.63895 -0.403407,0.1548 c -0.69782,0.26778 -0.89375,0.17514 -1.21147,-0.5728 l -0.30908,-0.72761 -0.1,0.73949 -0.1,0.7395 -0.57659,-0.17705 c -0.31712,-0.0974 -0.62161,-0.21721 -0.67665,-0.26629 -0.055,-0.0491 0.12969,-1.03576 0.41048,-2.19263 l 0.51055,-2.10338 -0.34434,-0.47091 c -0.45417,-0.62112 -0.43638,-1.46985 0.0441,-2.10514 l 0.38846,-0.51359 0.008,-1.91823 0.008,-1.91823 h -0.28127 c -0.1547,0 -5.542282,2.69267 -11.972398,5.98371 l -11.691121,5.98371 -1.322916,0.1224 -1.322917,0.1224 z"
       id="path82"
       sodipodi:nodetypes="ccccsssscccsssccccccccccccccscssscsscccccccsccccsscssscccccccccccccsscccccccccccccccsscccccsscccsscccccccccccccccccssscccccsscccsscccsscsscccccssccccccccccssscccccccccsscccsscssscccccccccccccsscsssscssccccccsscccccccccccccsscssccsscscsscsscccsscccccsscsscccsscccsscccccscsscccsscccc" /></g></svg>
